<svg width="18" height="18" viewBox="0 0 18 18" fill="none" xmlns="http://www.w3.org/2000/svg">
<path d="M9.4957 1.8886L9.4732 1.9411L7.2982 6.9886H5.1607C4.6507 6.9886 4.1632 7.0936 3.7207 7.2811L5.0332 4.1461L5.0632 4.0711L5.1157 3.9511C5.1307 3.9061 5.1457 3.8611 5.1682 3.8236C6.1507 1.5511 7.2607 1.0336 9.4957 1.8886Z" stroke="#0E3281" stroke-width="1.2" stroke-linecap="round" stroke-linejoin="round"/>
<path d="M13.5379 7.13867C13.2004 7.03367 12.8404 6.98867 12.4804 6.98867H7.29785L9.47285 1.94117L9.49535 1.88867C9.60785 1.92617 9.71285 1.97867 9.82535 2.02367L11.4829 2.72117C12.4054 3.10367 13.0504 3.50117 13.4404 3.98117C13.5154 4.07117 13.5754 4.15367 13.6279 4.25117C13.6954 4.35617 13.7479 4.46117 13.7779 4.57367C13.8079 4.64117 13.8304 4.70867 13.8454 4.76867C14.0479 5.39867 13.9279 6.17117 13.5379 7.13867Z" stroke="#0E3281" stroke-width="1.2" stroke-linecap="round" stroke-linejoin="round"/>
<path d="M16.1413 10.6483V12.1108C16.1413 12.2608 16.1338 12.4108 16.1263 12.5608C15.9838 15.1783 14.5213 16.4983 11.7463 16.4983H5.89629C5.71629 16.4983 5.53629 16.4833 5.36379 16.4608C2.97879 16.3033 1.70379 15.0283 1.54629 12.6433C1.52379 12.4708 1.50879 12.2908 1.50879 12.1108V10.6483C1.50879 9.14078 2.42379 7.84328 3.72879 7.28078C4.17879 7.09328 4.65879 6.98828 5.16879 6.98828H12.4888C12.8563 6.98828 13.2163 7.04078 13.5463 7.13828C15.0388 7.59578 16.1413 8.99078 16.1413 10.6483Z" fill="#0E3281"/>
<path d="M10.6963 11.998H6.94629" stroke="#F3F5F9" stroke-width="1.2" stroke-miterlimit="10" stroke-linecap="round" stroke-linejoin="round"/>
<path d="M5.0325 4.14551L3.72 7.28051C2.415 7.84301 1.5 9.14051 1.5 10.648V8.45051C1.5 6.32051 3.015 4.54301 5.0325 4.14551Z" fill="#0E3281"/>
<path d="M16.1389 8.45074V10.6482C16.1389 8.99824 15.0439 7.59574 13.5439 7.14574C13.9339 6.17074 14.0464 5.40574 13.8589 4.76824C13.8439 4.70074 13.8214 4.63324 13.7914 4.57324C15.1864 5.29324 16.1389 6.77074 16.1389 8.45074Z" fill="#0E3281"/>
</svg>
