<svg width="18" height="18" viewBox="0 0 18 18" fill="none" xmlns="http://www.w3.org/2000/svg">
<path d="M10.0275 16.5H6C3.375 16.5 2.25 15 2.25 12.75V6.375C2.25 4.125 3.375 2.625 6 2.625H12C14.625 2.625 15.75 4.125 15.75 6.375V9.75" stroke="#0A0A0A" stroke-width="1.2" stroke-miterlimit="10" stroke-linecap="round" stroke-linejoin="round"/>
<path d="M6 1.5V3.75" stroke="#0A0A0A" stroke-width="1.2" stroke-miterlimit="10" stroke-linecap="round" stroke-linejoin="round"/>
<path d="M12 1.5V3.75" stroke="#0A0A0A" stroke-width="1.2" stroke-miterlimit="10" stroke-linecap="round" stroke-linejoin="round"/>
<path d="M13.5 16.5C15.1569 16.5 16.5 15.1569 16.5 13.5C16.5 11.8431 15.1569 10.5 13.5 10.5C11.8431 10.5 10.5 11.8431 10.5 13.5C10.5 15.1569 11.8431 16.5 13.5 16.5Z" stroke="#0A0A0A" stroke-width="1.2" stroke-miterlimit="10" stroke-linecap="round" stroke-linejoin="round"/>
<path d="M13.6875 12.5625V13.26C13.6875 13.5225 13.5525 13.77 13.32 13.905L12.75 14.25" stroke="#0A0A0A" stroke-width="1.2" stroke-miterlimit="10" stroke-linecap="round" stroke-linejoin="round"/>
<path d="M2.625 6.81641H15.375" stroke="#0A0A0A" stroke-width="1.2" stroke-miterlimit="10" stroke-linecap="round" stroke-linejoin="round"/>
<path d="M8.99588 10.2734H9.00262" stroke="#0A0A0A" stroke-width="1.5" stroke-linecap="round" stroke-linejoin="round"/>
<path d="M6.22147 10.2734H6.2282" stroke="#0A0A0A" stroke-width="1.5" stroke-linecap="round" stroke-linejoin="round"/>
<path d="M6.22147 12.5234H6.2282" stroke="#0A0A0A" stroke-width="1.5" stroke-linecap="round" stroke-linejoin="round"/>
</svg>
