<svg width="16" height="16" viewBox="0 0 16 16" fill="none" xmlns="http://www.w3.org/2000/svg">
<path d="M12.6251 9.7844C12.1213 9.67603 11.7228 9.90993 11.3699 10.1142C11.0085 10.3247 10.3214 10.8821 9.92747 10.7395C7.91081 9.90915 6.0141 8.14403 5.19304 6.11928C5.04833 5.71698 5.60318 5.02543 5.81212 4.65978C6.01487 4.30582 6.24393 3.90352 6.13946 3.39597C6.04505 2.93988 4.82391 1.38604 4.3921 0.961133C4.10733 0.680459 3.81558 0.526089 3.5161 0.50114C2.39015 0.452802 1.13264 1.95518 0.912089 2.3146C0.359559 3.08099 0.362654 4.10077 0.921376 5.33729C2.26788 8.65859 7.3606 13.6709 10.6944 15.0681C11.3096 15.3558 11.8722 15.5 12.3775 15.5C12.872 15.5 13.3123 15.362 13.6907 15.0883C13.9763 14.9238 15.5402 13.6039 15.4992 12.4477C15.4744 12.153 15.3204 11.8583 15.0434 11.5729C14.6217 11.1371 13.0778 9.87952 12.6251 9.7844Z" fill="#575A5E"/>
</svg>
