<svg width="42" height="20" viewBox="0 0 42 20" fill="none" xmlns="http://www.w3.org/2000/svg">
<path d="M7.87113 0.211914C10.5408 0.211914 12.7732 1.15877 14.5693 3.05336C16.3645 4.94706 17.2625 7.29811 17.2625 10.1065C17.2625 12.9149 16.3645 15.2651 14.5693 17.1596C12.7741 19.0534 10.5408 20.0002 7.87113 20.0002H1.61716C0.724364 20.0002 0 19.2597 0 18.345V1.86712C0 0.953316 0.723491 0.211914 1.61716 0.211914H7.872H7.87113ZM8.08407 13.9037C9.10429 13.9037 9.936 13.5571 10.5783 12.8631C11.2207 12.169 11.5427 11.2508 11.5427 10.1056C11.5427 8.96046 11.2207 8.04219 10.5783 7.34813C9.93513 6.65407 9.10342 6.30749 8.08407 6.30749H7.19389C6.51578 6.30749 5.96684 6.87024 5.96684 7.56341V12.6469C5.96684 13.341 6.51665 13.9028 7.19389 13.9028H8.08407V13.9037Z" fill="#18569B"/>
<path d="M12.1089 19.2693V16.6181C12.1089 16.4386 12.177 16.2662 12.2983 16.1367L18.5156 9.4962C19.1606 8.78874 19.6301 8.21617 19.9242 7.77847C20.2183 7.34078 20.3658 6.90844 20.3658 6.47968C20.3658 5.99553 20.2139 5.60429 19.9102 5.30683C19.6065 5.00938 19.1876 4.8602 18.6535 4.8602C17.6961 4.8602 16.9325 5.3381 16.3635 6.29477C16.1706 6.61902 15.7587 6.73068 15.4323 6.54667L12.3708 4.81733C12.0452 4.63332 11.9178 4.21974 12.0915 3.88566C12.6998 2.71282 13.5245 1.79902 14.5657 1.14515C15.7805 0.382313 17.1245 0 18.5985 0C20.4391 0 22.0187 0.554712 23.3348 1.66146C24.6509 2.76909 25.3098 4.28227 25.3098 6.20009C25.3098 7.33542 25.0471 8.38231 24.5217 9.34077C23.9963 10.2992 23.2266 11.3095 22.2134 12.3698L21.0055 13.6409C20.4723 14.2028 20.8659 15.1371 21.6356 15.1371H24.9476C25.3307 15.1371 25.6406 15.4506 25.6406 15.8383V19.2684C25.6406 19.6552 25.3299 19.9696 24.9476 19.9696H12.8001C12.417 19.9696 12.1072 19.6561 12.1072 19.2684L12.1089 19.2693Z" fill="#238EE5"/>
<path d="M32.5214 0.211914C35.1911 0.211914 37.4235 1.15877 39.2187 3.05336C41.0139 4.94706 41.912 7.29811 41.912 10.1065C41.912 12.9149 41.0139 15.2651 39.2187 17.1596C37.4235 19.0534 35.1911 20.0002 32.5214 20.0002H26.2666C25.3738 20.0002 24.6494 19.2597 24.6494 18.345V1.86712C24.6494 0.953316 25.3729 0.211914 26.2666 0.211914H32.5214ZM32.7352 13.9037C33.7555 13.9037 34.5872 13.5571 35.2304 12.8631C35.8727 12.169 36.1947 11.2508 36.1947 10.1056C36.1947 8.96046 35.8727 8.04219 35.2304 7.34813C34.5872 6.65407 33.7555 6.30749 32.7352 6.30749H31.8451C31.1669 6.30749 30.618 6.87024 30.618 7.56341V12.6469C30.618 13.341 31.1678 13.9028 31.8451 13.9028H32.7352V13.9037Z" fill="#0D3272"/>
</svg>
