<svg width="20" height="20" viewBox="0 0 20 20" fill="none" xmlns="http://www.w3.org/2000/svg">
<path fill-rule="evenodd" clip-rule="evenodd" d="M13.2826 2.82565C13.0436 2.12222 12.4229 1.66699 11.7199 1.66699H8.27993L8.14916 1.67227C7.45767 1.72824 6.86759 2.22446 6.68587 2.92143L6.47953 3.97377L6.45535 4.0664C6.35654 4.36639 6.0803 4.5746 5.76476 4.5746L5.76476 4.5746H3.10949L3.02679 4.58031C2.72929 4.62169 2.5 4.8832 2.5 5.19962C2.5 5.54481 2.77288 5.82465 3.10949 5.82465L5.76476 5.82464H14.2351L16.8905 5.82465L16.9732 5.81894C17.2707 5.77755 17.5 5.51605 17.5 5.19962C17.5 4.85443 17.2271 4.5746 16.8905 4.5746H14.2358C14.2356 4.5746 14.2353 4.5746 14.2351 4.5746L14.1417 4.56847C13.8354 4.52799 13.5822 4.29093 13.5203 3.97352L13.3228 2.9604L13.2826 2.82565ZM12.4286 4.5746C12.4009 4.50404 12.3769 4.43134 12.3569 4.35673L12.325 4.21873L12.1364 3.24432C12.0923 3.07525 11.9561 2.95148 11.7918 2.92318L11.7199 2.91704H8.27993C8.10892 2.91704 7.95691 3.01968 7.89377 3.14868L7.87235 3.20536L7.67483 4.21898C7.65073 4.3424 7.61583 4.46125 7.57126 4.5746H12.4286ZM15.8156 7.26719C16.1231 7.29262 16.3589 7.54801 16.3752 7.85542L16.3673 8.02683L16.1052 11.2362L15.8303 14.3682C15.7721 14.9934 15.7201 15.5208 15.6751 15.9359C15.5189 17.3827 14.5798 18.2773 13.1641 18.3038C10.958 18.3446 8.83754 18.3441 6.77834 18.2996C5.40355 18.2708 4.47829 17.3664 4.32486 15.9418L4.21882 14.8922L4.03352 12.8562L3.8437 10.6221L3.62667 7.94028C3.59969 7.5962 3.84983 7.29484 4.18536 7.26718C4.49293 7.24182 4.76549 7.45525 4.82956 7.75602L4.85449 8.00182L5.05828 10.516L5.28081 13.1219C5.38062 14.2501 5.46718 15.163 5.53645 15.8044C5.62389 16.6162 6.05138 17.034 6.80366 17.0498C8.84678 17.094 10.9515 17.0944 13.142 17.054C13.94 17.039 14.3743 16.6253 14.4636 15.7982L14.5691 14.7542C14.6001 14.4325 14.6331 14.0773 14.668 13.6915L14.8908 11.1285L15.1591 7.83996C15.1839 7.52456 15.4329 7.2828 15.7327 7.26606L15.8156 7.26719Z" fill="#D14B4B"/>
</svg>
