<svg width="16" height="16" viewBox="0 0 16 16" fill="none" xmlns="http://www.w3.org/2000/svg">
<path d="M7.99951 9.33301H8.66618C9.39951 9.33301 9.99951 8.73301 9.99951 7.99967V1.33301H3.99951C2.99951 1.33301 2.12618 1.88633 1.67285 2.69967" stroke="#0A0A0A" stroke-linecap="round" stroke-linejoin="round"/>
<path d="M1.33301 11.333C1.33301 12.4397 2.22634 13.333 3.33301 13.333H3.99967C3.99967 12.5997 4.59967 11.9997 5.33301 11.9997C6.06634 11.9997 6.66634 12.5997 6.66634 13.333H9.33301C9.33301 12.5997 9.93301 11.9997 10.6663 11.9997C11.3997 11.9997 11.9997 12.5997 11.9997 13.333H12.6663C13.773 13.333 14.6663 12.4397 14.6663 11.333V9.33301H12.6663C12.2997 9.33301 11.9997 9.03301 11.9997 8.66634V6.66634C11.9997 6.29967 12.2997 5.99967 12.6663 5.99967H13.5263L12.3864 4.00635C12.1464 3.59301 11.7064 3.33301 11.2264 3.33301H9.99967V7.99967C9.99967 8.73301 9.39967 9.33301 8.66634 9.33301H7.99967" stroke="#0A0A0A" stroke-linecap="round" stroke-linejoin="round"/>
<path d="M5.33333 14.6667C6.06971 14.6667 6.66667 14.0697 6.66667 13.3333C6.66667 12.597 6.06971 12 5.33333 12C4.59695 12 4 12.597 4 13.3333C4 14.0697 4.59695 14.6667 5.33333 14.6667Z" stroke="#0A0A0A" stroke-linecap="round" stroke-linejoin="round"/>
<path d="M10.6663 14.6667C11.4027 14.6667 11.9997 14.0697 11.9997 13.3333C11.9997 12.597 11.4027 12 10.6663 12C9.92996 12 9.33301 12.597 9.33301 13.3333C9.33301 14.0697 9.92996 14.6667 10.6663 14.6667Z" stroke="#0A0A0A" stroke-linecap="round" stroke-linejoin="round"/>
<path d="M14.6667 8V9.33333H12.6667C12.3 9.33333 12 9.03333 12 8.66667V6.66667C12 6.3 12.3 6 12.6667 6H13.5267L14.6667 8Z" stroke="#0A0A0A" stroke-linecap="round" stroke-linejoin="round"/>
<path d="M1.33301 5.33301H5.33301" stroke="#0A0A0A" stroke-linecap="round" stroke-linejoin="round"/>
<path d="M1.33301 7.33301H3.99967" stroke="#0A0A0A" stroke-linecap="round" stroke-linejoin="round"/>
<path d="M1.33301 9.33301H2.66634" stroke="#0A0A0A" stroke-linecap="round" stroke-linejoin="round"/>
</svg>
