<svg width="18" height="18" viewBox="0 0 18 18" fill="none" xmlns="http://www.w3.org/2000/svg">
<path d="M8.99982 10.5H9.74982C10.5748 10.5 11.2498 9.825 11.2498 9V1.5H4.49982C3.37482 1.5 2 2 1.5 4" fill="#0E3281"/>
<path d="M3.75 15C2.505 15 1.5 13.995 1.5 12.75V4L11.25 3.75H12.63C13.17 3.75 13.665 4.04251 13.935 4.50751L15.2175 6.75H14.25C13.8375 6.75 13.5 7.0875 13.5 7.5V9.75C13.5 10.1625 13.8375 10.5 14.25 10.5H16.5V12.75C16.5 13.995 15.495 15 14.25 15H13.5C13.5 14.175 12.825 13.5 12 13.5C11.175 13.5 10.5 14.175 10.5 15H7.5C7.5 14.175 6.825 13.5 6 13.5C5.175 13.5 4.5 14.175 4.5 15H3.75Z" fill="#0E3281"/>
<path d="M6 16.5C6.82843 16.5 7.5 15.8284 7.5 15C7.5 14.1716 6.82843 13.5 6 13.5C5.17157 13.5 4.5 14.1716 4.5 15C4.5 15.8284 5.17157 16.5 6 16.5Z" stroke="#0E3281" stroke-width="1.2" stroke-linecap="round" stroke-linejoin="round"/>
<path d="M12 16.5C12.8284 16.5 13.5 15.8284 13.5 15C13.5 14.1716 12.8284 13.5 12 13.5C11.1716 13.5 10.5 14.1716 10.5 15C10.5 15.8284 11.1716 16.5 12 16.5Z" stroke="#0E3281" stroke-width="1.2" stroke-linecap="round" stroke-linejoin="round"/>
<path d="M16.5 9V10.5H14.25C13.8375 10.5 13.5 10.1625 13.5 9.75V7.5C13.5 7.0875 13.8375 6.75 14.25 6.75H15.2175L16.5 9Z" fill="#F3F5F9"/>
<path d="M1.5 6H6" stroke="#F3F5F9" stroke-width="1.2" stroke-linecap="round" stroke-linejoin="round"/>
<path d="M1.5 8.25H4.5" stroke="#F3F5F9" stroke-width="1.2" stroke-linecap="round" stroke-linejoin="round"/>
<path d="M1.5 10.5H3" stroke="#F3F5F9" stroke-width="1.2" stroke-linecap="round" stroke-linejoin="round"/>
</svg>
