<svg width="16" height="16" viewBox="0 0 16 16" fill="none" xmlns="http://www.w3.org/2000/svg">
<path d="M15.3337 10.6475C15.3337 13.2275 13.247 15.3141 10.667 15.3141L11.367 14.1475" stroke="white" stroke-linecap="round" stroke-linejoin="round"/>
<path d="M0.666992 5.31413C0.666992 2.73413 2.75366 0.647461 5.33366 0.647461L4.63366 1.81413" stroke="white" stroke-linecap="round" stroke-linejoin="round"/>
<path d="M4.41211 8.71289H6.28544C6.69878 8.71289 7.03878 9.08623 7.03878 9.46623C7.03878 9.87956 6.70544 10.2196 6.28544 10.2196H4.41211V8.71289Z" stroke="white" stroke-width="0.8" stroke-miterlimit="10" stroke-linecap="round" stroke-linejoin="round"/>
<path d="M4.41211 10.2207H6.55878C7.03211 10.2207 7.41878 10.554 7.41878 10.974C7.41878 11.3874 7.03211 11.7274 6.55878 11.7274H4.41211V10.2207Z" stroke="white" stroke-width="0.8" stroke-miterlimit="10" stroke-linecap="round" stroke-linejoin="round"/>
<path d="M5.6123 11.7207V12.4674" stroke="white" stroke-width="0.8" stroke-miterlimit="10" stroke-linecap="round" stroke-linejoin="round"/>
<path d="M5.6123 7.9668V8.71346" stroke="white" stroke-width="0.8" stroke-miterlimit="10" stroke-linecap="round" stroke-linejoin="round"/>
<path d="M9.89952 10.2208C9.89952 12.4941 8.05952 14.3341 5.78619 14.3341C3.51285 14.3341 1.67285 12.4941 1.67285 10.2208C1.67285 7.94745 3.51285 6.10742 5.78619 6.10742C5.89285 6.10742 5.99285 6.1141 6.10619 6.12077C8.12619 6.2741 9.73952 7.88743 9.89285 9.90743C9.89285 10.0074 9.89952 10.1075 9.89952 10.2208Z" stroke="white" stroke-miterlimit="10" stroke-linecap="round" stroke-linejoin="round"/>
<path d="M14.3331 5.78031C14.3331 8.05365 12.4931 9.89368 10.2198 9.89368H9.89311C9.73978 7.87368 8.12645 6.26031 6.10645 6.10697V5.78031C6.10645 3.50698 7.94645 1.66699 10.2198 1.66699C12.4931 1.66699 14.3331 3.50698 14.3331 5.78031Z" stroke="white" stroke-miterlimit="10" stroke-linecap="round" stroke-linejoin="round"/>
</svg>
