<svg width="20" height="20" viewBox="0 0 20 20" fill="none" xmlns="http://www.w3.org/2000/svg">
<path fill-rule="evenodd" clip-rule="evenodd" d="M6.82724 8.5316L12.9518 2.41716C13.9548 1.41694 15.5803 1.41694 16.5833 2.41716L17.5809 3.41311C18.5839 4.41451 18.5839 6.03866 17.5809 7.03897L11.427 13.1826C10.9781 13.6308 10.3693 13.8827 9.7344 13.8827H6.66442C6.31898 13.8827 6.04138 13.5986 6.04997 13.2538L6.12701 10.1609C6.14246 9.54843 6.39305 8.96507 6.82724 8.5316ZM16.7116 4.28091L15.7145 3.28543C15.1915 2.76386 14.3436 2.76386 13.8209 3.2852L13.3169 3.7883L16.2077 6.67427L16.7119 6.17094C17.2345 5.64969 17.2345 4.80296 16.7116 4.28091ZM15.3384 7.54207L12.4477 4.6561L7.69649 9.3994C7.48531 9.61023 7.36343 9.89396 7.35592 10.1917L7.29399 12.6547L9.7344 12.6555C10.0046 12.6555 10.2651 12.5616 10.4723 12.3921L10.5578 12.3148L15.3384 7.54207ZM9.44551 1.69857C9.78497 1.69857 10.0602 1.97331 10.0602 2.3122C10.0602 2.62286 9.82893 2.8796 9.52892 2.92023L9.44551 2.92583H6.38128C4.31478 2.92583 2.97626 4.2944 2.89931 6.4197L2.8958 6.61497V13.4173C2.8958 15.5908 4.16924 17.0204 6.19505 17.1027L6.38128 17.1064H13.6128C15.6845 17.1064 17.0189 15.7408 17.0956 13.6128L17.0991 13.4173V10.1217C17.0991 9.78276 17.3743 9.50803 17.7138 9.50803C18.025 9.50803 18.2821 9.73888 18.3228 10.0384L18.3284 10.1217V13.4173C18.3284 16.2499 16.5312 18.2415 13.8046 18.3305L13.6128 18.3337H6.38128C3.61259 18.3337 1.75253 16.4063 1.66941 13.6135L1.6665 13.4173V6.61497C1.6665 3.78515 3.46838 1.79088 6.18992 1.70169L6.38128 1.69857H9.44551Z" fill="#363636"/>
</svg>
