<svg width="16" height="16" viewBox="0 0 16 16" fill="none" xmlns="http://www.w3.org/2000/svg">
<rect x="0.5" y="0.5" width="15" height="15" rx="7.5" stroke="#D14B4B"/>
<path d="M7.43276 12V6.23099H8.55577V12H7.43276ZM7.9999 5.34084C7.80459 5.34084 7.63683 5.27574 7.49661 5.14554C7.3589 5.01283 7.29004 4.85509 7.29004 4.6723C7.29004 4.48701 7.3589 4.32926 7.49661 4.19906C7.63683 4.06635 7.80459 4 7.9999 4C8.1952 4 8.36171 4.06635 8.49943 4.19906C8.63965 4.32926 8.70976 4.48701 8.70976 4.6723C8.70976 4.85509 8.63965 5.01283 8.49943 5.14554C8.36171 5.27574 8.1952 5.34084 7.9999 5.34084Z" fill="#D14B4B"/>
</svg>
