<svg width="115" height="12" viewBox="0 0 115 12" fill="none" xmlns="http://www.w3.org/2000/svg">
<path d="M6.8547 0.829102H7.80578V11.1697H6.8547V6.14733H1.8627V11.1697H0.911621V0.829102H1.8627V5.11302H6.8547V0.829102Z" fill="#262626"/>
<path d="M13.2383 11.1697V0.829102H19.0252V1.86342H14.1894V5.11302H18.1901V6.14733H14.1894V10.1354H19.0252V11.1697H13.2383Z" fill="#262626"/>
<path d="M27.4189 0.829102H28.5994L32.0631 11.1697H31.0505L30.31 8.95439H25.7131L24.9726 11.1697H23.96L27.4165 0.829102H27.4189ZM26.0585 7.92008H29.9575L28.008 2.10013L26.0585 7.92008Z" fill="#262626"/>
<path d="M37.1357 11.1697V0.829102H38.0868V10.1354H42.4542V11.1697H37.1357Z" fill="#262626"/>
<path d="M53.9238 0.829102V1.86342H50.6636V11.1697H49.7125V1.86342H46.4595V0.829102H53.9238Z" fill="#262626"/>
<path d="M65.0271 0.829102H65.9781V11.1697H65.0271V6.14733H60.0351V11.1697H59.084V0.829102H60.0351V5.11302H65.0271V0.829102Z" fill="#262626"/>
<path d="M75.8123 11.3632C75.1687 11.3632 74.5654 11.2243 74 10.9464C73.4345 10.6685 72.9377 10.2852 72.5095 9.79375C72.0813 9.3049 71.7477 8.73371 71.504 8.08276C71.2627 7.43181 71.1396 6.73969 71.1396 6.00126C71.1396 5.26283 71.2603 4.56815 71.504 3.9172C71.7453 3.26625 72.0813 2.69763 72.5095 2.2062C72.9377 1.71734 73.4345 1.33141 74 1.05353C74.5654 0.775659 75.1711 0.636719 75.8123 0.636719C76.5812 0.636719 77.2909 0.832262 77.9368 1.22077C78.5851 1.60928 79.1197 2.12644 79.5456 2.77225L78.7034 3.26625C78.3674 2.77997 77.9439 2.39145 77.4305 2.10328C76.9171 1.81512 76.3777 1.67103 75.8099 1.67103C75.2894 1.67103 74.8044 1.78424 74.3525 2.01323C73.903 2.24222 73.5079 2.55612 73.1672 2.95492C72.8265 3.35372 72.5615 3.81428 72.3723 4.33659C72.183 4.85889 72.086 5.41207 72.086 5.99869C72.086 6.58532 72.183 7.15393 72.3746 7.67623C72.5663 8.19854 72.8336 8.65909 73.1767 9.05789C73.5197 9.4567 73.9148 9.76802 74.3643 9.99187C74.8139 10.2157 75.2965 10.3289 75.8075 10.3289C76.3966 10.3289 76.9431 10.1823 77.4471 9.88895C77.951 9.59564 78.3698 9.21227 78.701 8.74143L79.5432 9.23542C79.1174 9.88123 78.5803 10.3958 77.9344 10.7818C77.2862 11.1677 76.5788 11.3607 75.8099 11.3607L75.8123 11.3632Z" fill="#262626"/>
<path d="M87.8456 0.829102H89.0262L92.4898 11.1697H91.4772L90.7367 8.95439H86.1398L85.3993 11.1697H84.3867L87.8433 0.829102H87.8456ZM86.4876 7.92008H90.3866L88.4371 2.10013L86.4876 7.92008Z" fill="#262626"/>
<path d="M97.5649 11.1697V0.829102H100.792C101.298 0.829102 101.757 0.962897 102.164 1.23048C102.571 1.49806 102.895 1.86085 103.134 2.31625C103.373 2.77166 103.494 3.28367 103.494 3.84971C103.494 4.35658 103.399 4.81713 103.21 5.23137C103.021 5.64561 102.76 5.98781 102.432 6.25797C102.103 6.52812 101.734 6.70823 101.322 6.79828L103.645 11.1697H102.545L100.257 6.87804H98.5184V11.1697H97.5673H97.5649ZM98.516 5.8463H100.709C101.045 5.8463 101.35 5.75625 101.63 5.57614C101.909 5.39604 102.131 5.15161 102.294 4.84543C102.46 4.53668 102.543 4.18934 102.543 3.80083C102.543 3.41232 102.46 3.0624 102.294 2.75622C102.129 2.44747 101.906 2.20562 101.63 2.02551C101.35 1.84541 101.045 1.75536 100.709 1.75536H98.516V5.8463Z" fill="#262626"/>
<path d="M109.125 11.1697V0.829102H114.911V1.86342H110.076V5.11302H114.076V6.14733H110.076V10.1354H114.911V11.1697H109.125Z" fill="#262626"/>
</svg>
