<svg width="84" height="84" viewBox="0 0 84 84" fill="none" xmlns="http://www.w3.org/2000/svg">
<rect width="84" height="84" rx="42" fill="#E3E3E3"/>
<path fill-rule="evenodd" clip-rule="evenodd" d="M37.6662 32H46.3338C49.738 32 52 34.4297 52 37.9167V46.0833C52 49.5704 49.7378 52 46.3328 52H37.6662C34.262 52 32 49.5703 32 46.0833V37.9167C32 34.4327 34.2674 32 37.6662 32ZM46.3335 33.5029H37.6659C35.1219 33.5029 33.5029 35.2399 33.5029 37.9164V46.083C33.5029 46.8282 33.6277 47.5002 33.8627 48.0821L35.0126 46.6862L35.5208 46.0596C36.7999 44.4749 37.9724 43.7903 39.5081 44.4336C39.7414 44.5314 39.9408 44.6371 40.196 44.7946L40.8567 45.2209C41.5164 45.6391 41.8306 45.6992 42.3131 45.4377C42.742 45.2056 43.0428 44.8811 43.5003 44.1769L43.8005 43.6992L44.0047 43.3716C44.1883 43.0816 44.3192 42.8912 44.4792 42.6839C45.5374 41.3144 47.1874 40.8684 48.6297 41.736C49.2544 42.1125 49.7081 42.4862 50.4965 43.2384V37.9164C50.4965 35.2366 48.8825 33.5029 46.3335 33.5029ZM50.4965 45.3151L50.4475 45.2713C50.3432 45.1753 50.2317 45.0702 50.098 44.9421L49.3987 44.2688C48.728 43.6321 48.3444 43.3192 47.8543 43.0238C47.1133 42.5781 46.2883 42.8011 45.6689 43.6027L45.5437 43.7714C45.5021 43.8298 45.4598 43.8915 45.4141 43.9603L45.0226 44.5813C44.2843 45.7776 43.8363 46.3227 43.0288 46.7596C42.0344 47.2984 41.2241 47.1865 40.2387 46.605L39.8009 46.3279L39.4326 46.0902C39.2281 45.9631 39.0819 45.8849 38.927 45.8199C38.2565 45.5391 37.6608 45.8496 36.8381 46.8248L35.0317 49.0316C34.9343 49.1496 34.8336 49.2713 34.7291 49.3975C35.4459 50.1016 36.4494 50.4965 37.6659 50.4965H46.3325C48.8823 50.4965 50.4965 48.7629 50.4965 46.083V45.3151ZM36.2715 38.7998C36.2715 37.3638 37.4366 36.1982 38.8721 36.1982C40.3084 36.1982 41.4737 37.3635 41.4737 38.7998C41.4737 40.2361 40.3084 41.4014 38.8721 41.4014C37.4366 41.4014 36.2715 40.2359 36.2715 38.7998ZM39.9701 38.7995C39.9701 38.1934 39.4779 37.7012 38.8718 37.7012C38.2666 37.7012 37.7744 38.1935 37.7744 38.7995C37.7744 39.4055 38.2666 39.8979 38.8718 39.8979C39.4779 39.8979 39.9701 39.4056 39.9701 38.7995Z" fill="#363636"/>
</svg>
