<svg width="20" height="20" viewBox="0 0 20 20" fill="none" xmlns="http://www.w3.org/2000/svg">
<g clip-path="url(#clip0_2814_26117)">
<path d="M11.6188 7.33074H12.375C12.5002 7.33074 12.6202 7.38045 12.7087 7.46895C12.7972 7.55744 12.8469 7.67746 12.8469 7.80261C12.8469 7.92776 12.7972 8.04778 12.7087 8.13628C12.6202 8.22477 12.5002 8.27449 12.375 8.27449H10.625C10.4596 8.29053 10.3061 8.36759 10.1944 8.49064C10.0827 8.6137 10.0209 8.77393 10.0209 8.94011C10.0209 9.1063 10.0827 9.26653 10.1944 9.38958C10.3061 9.51263 10.4596 9.58969 10.625 9.60574H11.325V9.99949C11.316 10.0923 11.3265 10.186 11.3559 10.2745C11.3852 10.3631 11.4328 10.4445 11.4955 10.5135C11.5582 10.5826 11.6346 10.6378 11.7199 10.6755C11.8052 10.7133 11.8974 10.7328 11.9907 10.7328C12.0839 10.7328 12.1762 10.7133 12.2614 10.6755C12.3467 10.6378 12.4232 10.5826 12.4858 10.5135C12.5485 10.4445 12.5961 10.3631 12.6254 10.2745C12.6548 10.186 12.6653 10.0923 12.6563 9.99949V9.58074C13.1092 9.51529 13.5202 9.27978 13.8057 8.92208C14.0912 8.56439 14.2297 8.11138 14.1931 7.6552C14.1565 7.19901 13.9475 6.7739 13.6086 6.46633C13.2697 6.15877 12.8264 5.99183 12.3688 5.99949H11.6188C11.4936 5.99949 11.3736 5.94977 11.2851 5.86128C11.1966 5.77278 11.1469 5.65276 11.1469 5.52761C11.1469 5.40246 11.1966 5.28244 11.2851 5.19395C11.3736 5.10545 11.4936 5.05574 11.6188 5.05574H13.3625C13.4554 5.06474 13.5491 5.05423 13.6376 5.02488C13.7261 4.99553 13.8075 4.94798 13.8766 4.88529C13.9456 4.82261 14.0008 4.74617 14.0386 4.66089C14.0763 4.57561 14.0959 4.48338 14.0959 4.39011C14.0959 4.29685 14.0763 4.20461 14.0386 4.11933C14.0008 4.03405 13.9456 3.95761 13.8766 3.89493C13.8075 3.83225 13.7261 3.7847 13.6376 3.75535C13.5491 3.72599 13.4554 3.71548 13.3625 3.72449H12.6688V3.33074C12.6527 3.16533 12.5757 3.01182 12.4526 2.90013C12.3296 2.78844 12.1693 2.72656 12.0032 2.72656C11.837 2.72656 11.6767 2.78844 11.5537 2.90013C11.4306 3.01182 11.3536 3.16533 11.3375 3.33074V3.74949C10.8846 3.81493 10.4736 4.05045 10.1881 4.40814C9.90259 4.76584 9.76408 5.21884 9.8007 5.67503C9.83732 6.13121 10.0463 6.55632 10.3852 6.86389C10.7241 7.17146 11.1674 7.33839 11.625 7.33074H11.6188Z" fill="black"/>
<path d="M19.4125 0.5875C19.0374 0.213372 18.5298 0.00226949 18 0H6C5.47019 0.00226949 4.96264 0.213372 4.5875 0.5875C4.40112 0.77246 4.25324 0.992518 4.1524 1.23496C4.05157 1.4774 3.99977 1.73742 4 2V10.6687H2C1.47065 10.6687 0.962885 10.8786 0.587992 11.2523C0.213098 11.626 0.00165422 12.1332 0 12.6625L0 17.3312C0 18.039 0.281171 18.7179 0.781659 19.2183C1.28215 19.7188 1.96095 20 2.66875 20H16.6688C17.5517 19.9983 18.3981 19.6468 19.0225 19.0225C19.6468 18.3981 19.9983 17.5517 20 16.6688V2C20.0002 1.73742 19.9484 1.4774 19.8476 1.23496C19.7468 0.992518 19.5989 0.77246 19.4125 0.5875ZM1.33125 17.3312V12.6625C1.33125 12.575 1.34859 12.4883 1.38227 12.4075C1.41595 12.3267 1.46531 12.2534 1.5275 12.1918C1.58968 12.1302 1.66345 12.0815 1.74455 12.0486C1.82565 12.0157 1.91247 11.9992 2 12H4V17.3312C4 17.5065 3.96549 17.68 3.89843 17.8419C3.83137 18.0038 3.73308 18.1509 3.60917 18.2748C3.48526 18.3987 3.33816 18.497 3.17627 18.5641C3.01437 18.6311 2.84086 18.6656 2.66562 18.6656C2.49039 18.6656 2.31688 18.6311 2.15498 18.5641C1.99309 18.497 1.84599 18.3987 1.72208 18.2748C1.59817 18.1509 1.49988 18.0038 1.43282 17.8419C1.36576 17.68 1.33125 17.5065 1.33125 17.3312ZM18.6625 16.6625C18.6625 17.1929 18.4518 17.7016 18.0767 18.0767C17.7016 18.4518 17.1929 18.6625 16.6625 18.6625H4.9625C5.2015 18.2594 5.32879 17.7999 5.33125 17.3312V2C5.33125 1.82264 5.40171 1.65254 5.52712 1.52712C5.65254 1.40171 5.82264 1.33125 6 1.33125H18C18.1774 1.33125 18.3475 1.40171 18.4729 1.52712C18.5983 1.65254 18.6688 1.82264 18.6688 2L18.6625 16.6625Z" fill="black"/>
<path d="M15.3314 12.6672H8.66887C8.57604 12.6582 8.48235 12.6687 8.39383 12.698C8.3053 12.7274 8.22389 12.7749 8.15483 12.8376C8.08577 12.9003 8.03058 12.9768 7.99282 13.062C7.95506 13.1473 7.93555 13.2395 7.93555 13.3328C7.93555 13.4261 7.95506 13.5183 7.99282 13.6036C8.03058 13.6889 8.08577 13.7653 8.15483 13.828C8.22389 13.8907 8.3053 13.9382 8.39383 13.9676C8.48235 13.9969 8.57604 14.0074 8.66887 13.9984H15.3314C15.4242 14.0074 15.5179 13.9969 15.6064 13.9676C15.6949 13.9382 15.7764 13.8907 15.8454 13.828C15.9145 13.7653 15.9697 13.6889 16.0074 13.6036C16.0452 13.5183 16.0647 13.4261 16.0647 13.3328C16.0647 13.2395 16.0452 13.1473 16.0074 13.062C15.9697 12.9768 15.9145 12.9003 15.8454 12.8376C15.7764 12.7749 15.6949 12.7274 15.6064 12.698C15.5179 12.6687 15.4242 12.6582 15.3314 12.6672Z" fill="black"/>
<path d="M15.3314 15.9992H8.66887C8.57604 15.9902 8.48235 16.0007 8.39383 16.0301C8.3053 16.0594 8.22389 16.107 8.15483 16.1697C8.08577 16.2323 8.03058 16.3088 7.99282 16.3941C7.95506 16.4793 7.93555 16.5716 7.93555 16.6648C7.93555 16.7581 7.95506 16.8503 7.99282 16.9356C8.03058 17.0209 8.08577 17.0973 8.15483 17.16C8.22389 17.2227 8.3053 17.2703 8.39383 17.2996C8.48235 17.329 8.57604 17.3395 8.66887 17.3305H15.3314C15.4242 17.3395 15.5179 17.329 15.6064 17.2996C15.6949 17.2703 15.7764 17.2227 15.8454 17.16C15.9145 17.0973 15.9697 17.0209 16.0074 16.9356C16.0452 16.8503 16.0647 16.7581 16.0647 16.6648C16.0647 16.5716 16.0452 16.4793 16.0074 16.3941C15.9697 16.3088 15.9145 16.2323 15.8454 16.1697C15.7764 16.107 15.6949 16.0594 15.6064 16.0301C15.5179 16.0007 15.4242 15.9902 15.3314 15.9992Z" fill="black"/>
</g>
<defs>
<clipPath id="clip0_2814_26117">
<rect width="20" height="20" fill="white"/>
</clipPath>
</defs>
</svg>
