<svg width="33" height="20" viewBox="0 0 33 20" fill="none" xmlns="http://www.w3.org/2000/svg">
<g style="mix-blend-mode:plus-darker">
<path fill-rule="evenodd" clip-rule="evenodd" d="M13.3325 2.46751C11.7314 1.03084 9.77823 0.3125 7.4729 0.3125H1.9871C0.889654 0.3125 0 1.20215 0 2.2996V17.6996C0 18.797 0.889654 19.6867 1.9871 19.6867H7.4729C8.68614 19.6867 9.80185 19.4897 10.82 19.0957C10.7109 18.9135 10.6481 18.7003 10.6481 18.4725C10.6481 18.1522 10.7747 17.8448 11.0004 17.6174L16.4044 12.1704C16.5391 11.4791 16.6065 10.7555 16.6065 9.9996C16.6065 7.28721 15.7392 4.99921 14.0048 3.1356C13.806 2.91761 13.6011 2.71224 13.3899 2.5195C13.3703 2.50307 13.3511 2.48574 13.3325 2.46751Z" fill="#0E3281"/>
<mask id="path-2-inside-1_253_3420" fill="white">
<path fill-rule="evenodd" clip-rule="evenodd" d="M21.8317 19.6867H23.8664C26.5049 19.6867 28.6822 18.7549 30.3982 16.8913C32.1327 15.0092 32.9999 12.712 32.9999 9.9996C32.9999 7.28721 32.1327 4.99921 30.3982 3.1356C28.6822 1.25353 26.5049 0.3125 23.8664 0.3125H16.6072H16.3934L16.3989 0.315376C16.468 0.313459 16.5374 0.3125 16.6072 0.3125C18.1311 0.3125 19.4644 0.829508 20.6072 1.86352C21.7682 2.8794 22.3487 4.26716 22.3487 6.0268C22.3487 7.13338 22.0404 8.1946 21.4236 9.21048C20.8068 10.2264 19.936 11.2967 18.8113 12.4214L15.9287 15.2896C14.9862 16.2273 15.6503 17.8363 16.9799 17.8363H21.8317C22.3427 17.8363 22.7569 18.2506 22.7569 18.7615C22.7569 19.2725 22.3427 19.6867 21.8317 19.6867Z"/>
</mask>
<path fill-rule="evenodd" clip-rule="evenodd" d="M21.8317 19.6867H23.8664C26.5049 19.6867 28.6822 18.7549 30.3982 16.8913C32.1327 15.0092 32.9999 12.712 32.9999 9.9996C32.9999 7.28721 32.1327 4.99921 30.3982 3.1356C28.6822 1.25353 26.5049 0.3125 23.8664 0.3125H16.6072H16.3934L16.3989 0.315376C16.468 0.313459 16.5374 0.3125 16.6072 0.3125C18.1311 0.3125 19.4644 0.829508 20.6072 1.86352C21.7682 2.8794 22.3487 4.26716 22.3487 6.0268C22.3487 7.13338 22.0404 8.1946 21.4236 9.21048C20.8068 10.2264 19.936 11.2967 18.8113 12.4214L15.9287 15.2896C14.9862 16.2273 15.6503 17.8363 16.9799 17.8363H21.8317C22.3427 17.8363 22.7569 18.2506 22.7569 18.7615C22.7569 19.2725 22.3427 19.6867 21.8317 19.6867Z" fill="#3A99F9"/>
<path d="M30.3982 16.8913L30.0329 16.5546L30.0328 16.5548L30.3982 16.8913ZM30.3982 3.1356L30.0311 3.47032L30.0346 3.47404L30.3982 3.1356ZM16.3934 0.3125V-0.184274L16.161 0.751544L16.3934 0.3125ZM16.3989 0.315376L16.1664 0.75442L16.282 0.815585L16.4127 0.811959L16.3989 0.315376ZM20.6072 1.86352L20.2739 2.23195L20.2801 2.23738L20.6072 1.86352ZM21.4236 9.21048L20.9989 8.95266L21.4236 9.21048ZM18.8113 12.4214L19.1617 12.7735L19.1626 12.7726L18.8113 12.4214ZM15.9287 15.2896L16.2791 15.6417H16.2791L15.9287 15.2896ZM23.8664 19.1899H21.8317V20.1835H23.8664V19.1899ZM30.0328 16.5548C28.4152 18.3115 26.3726 19.1899 23.8664 19.1899V20.1835C26.6373 20.1835 28.9493 19.1982 30.7637 17.2278L30.0328 16.5548ZM32.5031 9.9996C32.5031 12.5954 31.6775 14.7701 30.0329 16.5546L30.7635 17.2279C32.5879 15.2483 33.4967 12.8286 33.4967 9.9996H32.5031ZM30.0346 3.47404C31.6775 5.23934 32.5031 7.40379 32.5031 9.9996H33.4967C33.4967 7.17063 32.5878 4.75909 30.7619 2.79715L30.0346 3.47404ZM23.8664 0.809274C26.3709 0.809274 28.413 1.69561 30.0311 3.4703L30.7653 2.80089C28.9514 0.81145 26.6389 -0.184274 23.8664 -0.184274V0.809274ZM16.6072 0.809274H23.8664V-0.184274H16.6072V0.809274ZM16.3934 0.809274H16.6072V-0.184274H16.3934V0.809274ZM16.6313 -0.123668L16.6259 -0.126544L16.161 0.751544L16.1664 0.75442L16.6313 -0.123668ZM16.4127 0.811959C16.4771 0.81017 16.542 0.809274 16.6072 0.809274V-0.184274C16.5329 -0.184274 16.4589 -0.183253 16.3851 -0.181207L16.4127 0.811959ZM16.6072 0.809274C18.0063 0.809274 19.2213 1.27948 20.274 2.2319L20.9405 1.49515C19.7075 0.379537 18.2558 -0.184274 16.6072 -0.184274V0.809274ZM20.2801 2.23738C21.3175 3.14512 21.852 4.38802 21.852 6.0268H22.8455C22.8455 4.14629 22.219 2.61367 20.9344 1.48966L20.2801 2.23738ZM21.852 6.0268C21.852 7.03571 21.5722 8.00853 20.9989 8.95266L21.8482 9.46829C22.5086 8.38067 22.8455 7.23104 22.8455 6.0268H21.852ZM20.9989 8.95266C20.4084 9.92535 19.5655 10.9647 18.4601 12.0701L19.1626 12.7726C20.3066 11.6286 21.2052 10.5274 21.8482 9.46829L20.9989 8.95266ZM18.4609 12.0692L15.5783 14.9374L16.2791 15.6417L19.1617 12.7735L18.4609 12.0692ZM15.5783 14.9374C14.3217 16.1878 15.2072 18.3331 16.9799 18.3331V17.3396C16.0935 17.3396 15.6508 16.2669 16.2791 15.6417L15.5783 14.9374ZM16.9799 18.3331H21.8317V17.3396H16.9799V18.3331ZM21.8317 18.3331C22.0683 18.3331 22.2601 18.5249 22.2601 18.7615H23.2537C23.2537 17.9762 22.6171 17.3396 21.8317 17.3396V18.3331ZM22.2601 18.7615C22.2601 18.9981 22.0683 19.1899 21.8317 19.1899V20.1835C22.6171 20.1835 23.2537 19.5468 23.2537 18.7615H22.2601Z" fill="#3A99F9" mask="url(#path-2-inside-1_253_3420)"/>
</g>
</svg>
