<svg width="180" height="36" viewBox="0 0 180 36" fill="none" xmlns="http://www.w3.org/2000/svg">
<path d="M15.8711 8.21094C18.5408 8.21094 20.7732 9.15779 22.5693 11.0524C24.3645 12.9461 25.2625 15.2971 25.2625 18.1055C25.2625 20.9139 24.3645 23.2641 22.5693 25.1587C20.7741 27.0524 18.5408 27.9992 15.8711 27.9992H9.61716C8.72436 27.9992 8 27.2587 8 26.344V9.86614C8 8.95234 8.72349 8.21094 9.61716 8.21094H15.872H15.8711ZM16.0841 21.9028C17.1043 21.9028 17.936 21.5562 18.5783 20.8621C19.2207 20.1681 19.5427 19.2498 19.5427 18.1046C19.5427 16.9595 19.2207 16.0412 18.5783 15.3472C17.9351 14.6531 17.1034 14.3065 16.0841 14.3065H15.1939C14.5158 14.3065 13.9668 14.8693 13.9668 15.5624V20.6459C13.9668 21.34 14.5167 21.9019 15.1939 21.9019H16.0841V21.9028Z" fill="#18569B"/>
<path d="M20.1089 27.2693V24.6181C20.1089 24.4386 20.177 24.2662 20.2983 24.1367L26.5156 17.4962C27.1606 16.7887 27.6301 16.2162 27.9242 15.7785C28.2183 15.3408 28.3658 14.9084 28.3658 14.4797C28.3658 13.9955 28.2139 13.6043 27.9102 13.3068C27.6065 13.0094 27.1876 12.8602 26.6535 12.8602C25.6961 12.8602 24.9325 13.3381 24.3635 14.2948C24.1706 14.619 23.7587 14.7307 23.4323 14.5467L20.3708 12.8173C20.0452 12.6333 19.9178 12.2197 20.0915 11.8857C20.6998 10.7128 21.5245 9.79902 22.5657 9.14515C23.7805 8.38231 25.1245 8 26.5985 8C28.4391 8 30.0187 8.55471 31.3348 9.66146C32.6509 10.7691 33.3098 12.2823 33.3098 14.2001C33.3098 15.3354 33.0471 16.3823 32.5217 17.3408C31.9963 18.2992 31.2266 19.3095 30.2134 20.3698L29.0055 21.6409C28.4723 22.2028 28.8659 23.1371 29.6356 23.1371H32.9476C33.3307 23.1371 33.6406 23.4506 33.6406 23.8383V27.2684C33.6406 27.6552 33.3299 27.9696 32.9476 27.9696H20.8001C20.417 27.9696 20.1072 27.6561 20.1072 27.2684L20.1089 27.2693Z" fill="#238EE5"/>
<path d="M40.5212 8.21094C43.1908 8.21094 45.4233 9.15779 47.2185 11.0524C49.0137 12.9461 49.9117 15.2971 49.9117 18.1055C49.9117 20.9139 49.0137 23.2641 47.2185 25.1587C45.4233 27.0524 43.1908 27.9992 40.5212 27.9992H34.2663C33.3735 27.9992 32.6492 27.2587 32.6492 26.344V9.86614C32.6492 8.95234 33.3727 8.21094 34.2663 8.21094H40.5212ZM40.735 21.9028C41.7552 21.9028 42.5869 21.5562 43.2301 20.8621C43.8724 20.1681 44.1945 19.2498 44.1945 18.1046C44.1945 16.9595 43.8724 16.0412 43.2301 15.3472C42.5869 14.6531 41.7552 14.3065 40.735 14.3065H39.8448C39.1667 14.3065 38.6178 14.8693 38.6178 15.5624V20.6459C38.6178 21.34 39.1676 21.9019 39.8448 21.9019H40.735V21.9028Z" fill="#0D3272"/>
<path d="M63.8549 12.8281H64.806V23.1687H63.8549V18.1464H58.8629V23.1687H57.9119V12.8281H58.8629V17.112H63.8549V12.8281Z" fill="#262626"/>
<path d="M70.2383 23.1687V12.8281H76.0252V13.8624H71.1894V17.112H75.1901V18.1464H71.1894V22.1344H76.0252V23.1687H70.2383Z" fill="#262626"/>
<path d="M84.4191 12.8281H85.5997L89.0633 23.1687H88.0507L87.3102 20.9534H82.7133L81.9728 23.1687H80.9602L84.4167 12.8281H84.4191ZM83.0587 19.9191H86.9577L85.0082 14.0992L83.0587 19.9191Z" fill="#262626"/>
<path d="M94.136 23.1687V12.8281H95.0871V22.1344H99.4545V23.1687H94.136Z" fill="#262626"/>
<path d="M110.924 12.8281V13.8624H107.664V23.1687H106.713V13.8624H103.46V12.8281H110.924Z" fill="#262626"/>
<path d="M122.027 12.8281H122.978V23.1687H122.027V18.1464H117.035V23.1687H116.084V12.8281H117.035V17.112H122.027V12.8281Z" fill="#262626"/>
<path d="M132.813 23.3632C132.169 23.3632 131.566 23.2243 131 22.9464C130.435 22.6685 129.938 22.2852 129.51 21.7938C129.082 21.3049 128.748 20.7337 128.504 20.0828C128.263 19.4318 128.14 18.7397 128.14 18.0013C128.14 17.2628 128.261 16.5681 128.504 15.9172C128.746 15.2662 129.082 14.6976 129.51 14.2062C129.938 13.7173 130.435 13.3314 131 13.0535C131.566 12.7757 132.172 12.6367 132.813 12.6367C133.582 12.6367 134.291 12.8323 134.937 13.2208C135.586 13.6093 136.12 14.1264 136.546 14.7722L135.704 15.2662C135.368 14.78 134.944 14.3915 134.431 14.1033C133.918 13.8151 133.378 13.671 132.81 13.671C132.29 13.671 131.805 13.7842 131.353 14.0132C130.903 14.2422 130.508 14.5561 130.168 14.9549C129.827 15.3537 129.562 15.8143 129.373 16.3366C129.183 16.8589 129.086 17.4121 129.086 17.9987C129.086 18.5853 129.183 19.1539 129.375 19.6762C129.567 20.1985 129.834 20.6591 130.177 21.0579C130.52 21.4567 130.915 21.768 131.365 21.9919C131.814 22.2157 132.297 22.3289 132.808 22.3289C133.397 22.3289 133.944 22.1823 134.448 21.8889C134.951 21.5956 135.37 21.2123 135.701 20.7414L136.544 21.2354C136.118 21.8812 135.581 22.3958 134.935 22.7818C134.287 23.1677 133.579 23.3607 132.81 23.3607L132.813 23.3632Z" fill="#262626"/>
<path d="M144.846 12.8281H146.026L149.49 23.1687H148.477L147.737 20.9534H143.14L142.4 23.1687H141.387L144.844 12.8281H144.846ZM143.488 19.9191H147.387L145.437 14.0992L143.488 19.9191Z" fill="#262626"/>
<path d="M154.565 23.1687V12.8281H157.792C158.298 12.8281 158.757 12.9619 159.164 13.2295C159.571 13.4971 159.895 13.8599 160.134 14.3153C160.373 14.7707 160.494 15.2827 160.494 15.8487C160.494 16.3556 160.399 16.8162 160.21 17.2304C160.021 17.6446 159.76 17.9868 159.432 18.257C159.103 18.5271 158.734 18.7073 158.322 18.7973L160.645 23.1687H159.545L157.257 18.8771H155.518V23.1687H154.567H154.565ZM155.516 17.8453H157.709C158.045 17.8453 158.35 17.7553 158.63 17.5752C158.909 17.3951 159.131 17.1506 159.294 16.8445C159.46 16.5357 159.543 16.1884 159.543 15.7999C159.543 15.4113 159.46 15.0614 159.294 14.7552C159.129 14.4465 158.906 14.2046 158.63 14.0245C158.35 13.8444 158.045 13.7544 157.709 13.7544H155.516V17.8453Z" fill="#262626"/>
<path d="M166.125 23.1687V12.8281H171.912V13.8624H167.076V17.112H171.077V18.1464H167.076V22.1344H171.912V23.1687H166.125Z" fill="#262626"/>
</svg>
