<svg width="18" height="18" viewBox="0 0 18 18" fill="none" xmlns="http://www.w3.org/2000/svg">
<path fill-rule="evenodd" clip-rule="evenodd" d="M12.7043 2.25C13.71 2.25 14.6775 2.6475 15.3892 3.36075C16.1017 4.0725 16.5 5.0325 16.5 6.0375V11.9625C16.5 14.055 14.7975 15.75 12.7043 15.75H5.295C3.20175 15.75 1.5 14.055 1.5 11.9625V6.0375C1.5 3.945 3.19425 2.25 5.295 2.25H12.7043ZM13.8974 7.15525L13.9574 7.09525C14.1367 6.87775 14.1367 6.56275 13.9492 6.34525C13.8449 6.2335 13.7017 6.16525 13.5524 6.15025C13.3949 6.142 13.2449 6.19525 13.1317 6.30025L9.74995 9.00025C9.31495 9.361 8.6917 9.361 8.24995 9.00025L4.87495 6.30025C4.6417 6.12775 4.3192 6.15025 4.12495 6.35275C3.92245 6.55525 3.89995 6.87775 4.0717 7.10275L4.16995 7.20025L7.58245 9.86275C8.00245 10.1927 8.5117 10.3727 9.04495 10.3727C9.5767 10.3727 10.0949 10.1927 10.5142 9.86275L13.8974 7.15525Z" fill="#575A5E"/>
</svg>
