<svg width="22" height="22" viewBox="0 0 22 22" fill="none" xmlns="http://www.w3.org/2000/svg">
<circle cx="11.0707" cy="10.7035" r="10.3519" fill="#0043FF" fill-opacity="0.1"/>
<path d="M15.7671 8.76858C15.195 6.25143 12.9993 5.11816 11.0706 5.11816C11.0706 5.11816 11.0706 5.11816 11.0651 5.11816C9.14184 5.11816 6.9407 6.24598 6.36862 8.76313C5.73116 11.5745 7.45285 13.9554 9.01108 15.4537C9.58861 16.0095 10.3296 16.2873 11.0706 16.2873C11.8116 16.2873 12.5525 16.0095 13.1246 15.4537C14.6828 13.9554 16.4045 11.5799 15.7671 8.76858ZM11.0706 11.4982C10.1226 11.4982 9.35433 10.73 9.35433 9.78198C9.35433 8.83396 10.1226 8.06574 11.0706 8.06574C12.0186 8.06574 12.7868 8.83396 12.7868 9.78198C12.7868 10.73 12.0186 11.4982 11.0706 11.4982Z" fill="#0043FF"/>
</svg>
