<svg width="17" height="18" viewBox="0 0 17 18" fill="none" xmlns="http://www.w3.org/2000/svg">
<path d="M8.96808 2.28303L8.94683 2.33261L6.89267 7.0997H4.87392C4.39225 7.0997 3.93183 7.19886 3.51392 7.37595L4.7535 4.41511L4.78183 4.34428L4.83142 4.23095C4.84558 4.18845 4.85975 4.14595 4.881 4.11053C5.80892 1.96428 6.85725 1.47553 8.96808 2.28303Z" stroke="white" stroke-linecap="round" stroke-linejoin="round"/>
<path d="M12.7857 7.24154C12.4669 7.14237 12.1269 7.09987 11.7869 7.09987H6.89233L8.9465 2.33279L8.96775 2.2832C9.074 2.31862 9.17317 2.3682 9.27942 2.4107L10.8448 3.06945C11.7161 3.4307 12.3253 3.80612 12.6936 4.25945C12.7644 4.34445 12.8211 4.42237 12.8707 4.51445C12.9344 4.61362 12.984 4.71279 13.0123 4.81904C13.0407 4.88279 13.0619 4.94654 13.0761 5.0032C13.2673 5.5982 13.154 6.32779 12.7857 7.24154Z" stroke="white" stroke-linecap="round" stroke-linejoin="round"/>
<path d="M15.2446 10.5563V11.9375C15.2446 12.0792 15.2375 12.2209 15.2305 12.3625C15.0959 14.8346 13.7146 16.0813 11.0938 16.0813H5.5688C5.3988 16.0813 5.2288 16.0671 5.06588 16.0459C2.81338 15.8971 1.60922 14.6929 1.46047 12.4404C1.43922 12.2775 1.42505 12.1075 1.42505 11.9375V10.5563C1.42505 9.13253 2.28922 7.90711 3.52172 7.37586C3.94672 7.19878 4.40005 7.09961 4.88172 7.09961H11.795C12.1421 7.09961 12.4821 7.14919 12.7938 7.24128C14.2034 7.67336 15.2446 8.99086 15.2446 10.5563Z" stroke="white" stroke-linecap="round" stroke-linejoin="round"/>
<path d="M10.102 11.832H6.5603" stroke="white" stroke-miterlimit="10" stroke-linecap="round" stroke-linejoin="round"/>
<path d="M4.753 4.41602L3.51341 7.37685C2.28091 7.9081 1.41675 9.13352 1.41675 10.5573V8.48185C1.41675 6.47018 2.84758 4.79143 4.753 4.41602Z" stroke="white" stroke-linecap="round" stroke-linejoin="round"/>
<path d="M15.2423 8.48044V10.5559C15.2423 8.99753 14.2082 7.67294 12.7915 7.24794C13.1598 6.32711 13.2661 5.60461 13.089 5.00253C13.0748 4.93878 13.0536 4.87503 13.0253 4.81836C14.3428 5.49836 15.2423 6.89378 15.2423 8.48044Z" stroke="white" stroke-linecap="round" stroke-linejoin="round"/>
</svg>
