<svg width="18" height="18" viewBox="0 0 18 18" fill="none" xmlns="http://www.w3.org/2000/svg">
<path d="M7.44795 1.86L3.44296 4.08752C2.53545 4.59002 1.79297 5.85001 1.79297 6.88501V11.1225C1.79297 12.1575 2.53545 13.4175 3.44296 13.92L7.44795 16.1475C8.30295 16.62 9.70545 16.62 10.5604 16.1475L14.5655 13.92C15.473 13.4175 16.2155 12.1575 16.2155 11.1225V6.88501C16.2155 5.85001 15.473 4.59002 14.5655 4.08752L10.5604 1.86C9.69795 1.38 8.30295 1.38 7.44795 1.86Z" fill="#0E3281" stroke="#0E3281" stroke-width="1.2" stroke-linecap="round" stroke-linejoin="round"/>
<path d="M2.37744 5.58008L8.99993 9.41257L15.5774 5.60255" stroke="#F3F5F9" stroke-width="1.2" stroke-linecap="round" stroke-linejoin="round"/>
<path d="M9 16.2068V9.4043" stroke="#F3F5F9" stroke-width="1.2" stroke-linecap="round" stroke-linejoin="round"/>
<path d="M12.7498 9.92923V7.18425L5.63232 3.07422" stroke="#F3F5F9" stroke-width="1.2" stroke-linecap="round" stroke-linejoin="round"/>
</svg>
