<svg width="18" height="18" viewBox="0 0 18 18" fill="none" xmlns="http://www.w3.org/2000/svg">
<path d="M13.6251 10.7844C13.1213 10.676 12.7228 10.9099 12.3699 11.1142C12.0085 11.3247 11.3214 11.8821 10.9275 11.7395C8.91081 10.9091 7.0141 9.14403 6.19304 7.11928C6.04833 6.71698 6.60318 6.02543 6.81212 5.65978C7.01487 5.30582 7.24393 4.90352 7.13946 4.39597C7.04505 3.93988 5.82391 2.38604 5.3921 1.96113C5.10733 1.68046 4.81558 1.52609 4.5161 1.50114C3.39015 1.4528 2.13264 2.95518 1.91209 3.3146C1.35956 4.08099 1.36265 5.10077 1.92138 6.33729C3.26788 9.65859 8.3606 14.6709 11.6944 16.0681C12.3096 16.3558 12.8722 16.5 13.3775 16.5C13.872 16.5 14.3123 16.362 14.6907 16.0883C14.9763 15.9238 16.5402 14.6039 16.4992 13.4477C16.4744 13.153 16.3204 12.8583 16.0434 12.5729C15.6217 12.1371 14.0778 10.8795 13.6251 10.7844Z" fill="#575A5E"/>
</svg>
