<svg width="74" height="74" viewBox="0 0 74 74" fill="none" xmlns="http://www.w3.org/2000/svg">
<rect x="1.33301" y="1" width="72" height="72" rx="36" fill="#F2F2F2"/>
<rect x="1.33301" y="1" width="72" height="72" rx="36" stroke="#AFAFAF" stroke-linecap="round" stroke-dasharray="8 8"/>
<path d="M38.333 28C38.333 27.4477 37.8853 27 37.333 27C36.7807 27 36.333 27.4477 36.333 28V36H28.333C27.7807 36 27.333 36.4477 27.333 37C27.333 37.5523 27.7807 38 28.333 38H36.333V46C36.333 46.5523 36.7807 47 37.333 47C37.8853 47 38.333 46.5523 38.333 46V38H46.333C46.8853 38 47.333 37.5523 47.333 37C47.333 36.4477 46.8853 36 46.333 36H38.333V28Z" fill="#AFAFAF"/>
</svg>
