<svg width="36" height="36" viewBox="0 0 36 36" fill="none" xmlns="http://www.w3.org/2000/svg">
<rect width="36" height="36" rx="18" fill="#F5F7FA"/>
<path fill-rule="evenodd" clip-rule="evenodd" d="M18.0033 9.66699C15.5583 9.66699 13.5762 11.6575 13.5762 14.113C13.5762 16.5684 15.5583 18.5589 18.0033 18.5589C20.4483 18.5589 22.4304 16.5684 22.4304 14.113C22.4304 11.6575 20.4483 9.66699 18.0033 9.66699ZM18.0032 10.873C19.7848 10.873 21.229 12.3235 21.229 14.1126C21.229 15.9018 19.7848 17.3522 18.0032 17.3522C16.2216 17.3522 14.7773 15.9018 14.7773 14.1126C14.7773 12.3235 16.2216 10.873 18.0032 10.873ZM16.1924 20.3511C15.5443 20.3961 14.8892 20.4886 14.243 20.6271C12.9958 20.884 11.998 21.3972 11.5734 22.2502C11.4132 22.5838 11.3326 22.941 11.334 23.3026C11.3335 23.6616 11.4134 24.0192 11.5678 24.3464C11.9756 25.1896 12.8572 25.6667 14.0475 25.9312L14.2608 25.9757C14.8894 26.1175 15.5447 26.213 16.2044 26.2579C16.2606 26.2743 16.3945 26.2896 16.5406 26.2971L16.6608 26.3016C16.7226 26.303 16.7928 26.3034 16.8973 26.3034C17.8455 26.3556 18.8285 26.3404 19.8069 26.2571C20.3283 26.2214 20.8532 26.1532 21.3738 26.0533L21.7632 25.9725C23.0486 25.7189 24.0111 25.2367 24.4328 24.3473C24.7454 23.6871 24.7454 22.9209 24.433 22.2609C24.0123 21.3739 23.0621 20.8956 21.7535 20.6261C21.24 20.5165 20.7183 20.4354 20.1929 20.3836L19.8087 20.3511C18.6056 20.2449 17.3955 20.2449 16.1924 20.3511ZM19.7035 21.5532L19.7141 21.554C20.3171 21.5965 20.9165 21.6811 21.5078 21.8073C22.4798 22.0076 23.1394 22.3396 23.3481 22.7797C23.5053 23.1115 23.5053 23.4972 23.348 23.8293C23.153 24.2406 22.5605 24.5583 21.7043 24.7525L21.5168 24.7922C20.9139 24.9267 20.3165 25.0134 19.7152 25.0546C18.7822 25.134 17.8547 25.1483 16.9295 25.0983L16.6015 25.0926C16.5105 25.088 16.4337 25.0792 16.3626 25.0649C15.7995 25.0224 15.2928 24.9552 14.8008 24.8577L14.507 24.7955C13.532 24.6044 12.8665 24.2709 12.6507 23.8248C12.5752 23.6648 12.5349 23.4843 12.5352 23.3015C12.5345 23.1197 12.5743 22.9432 12.6515 22.7823C12.8613 22.361 13.5665 21.9982 14.4889 21.8082C15.0845 21.6806 15.6836 21.596 16.2863 21.5541C17.4306 21.4532 18.5703 21.4532 19.7035 21.5532Z" fill="#363636"/>
</svg>
