<svg width="16" height="16" viewBox="0 0 16 16" fill="none" xmlns="http://www.w3.org/2000/svg">
<path d="M14.3501 14.3559C14.2568 14.4478 14.1311 14.4994 14.0001 14.4996C13.8673 14.499 13.7398 14.4476 13.6438 14.3559L10.9438 11.6496C9.80671 12.6047 8.34474 13.084 6.86285 12.9874C5.38095 12.8908 3.99355 12.2259 2.99 11.1313C1.98645 10.0366 1.44424 8.59681 1.47645 7.11212C1.50867 5.62743 2.11282 4.21249 3.1629 3.16241C4.21298 2.11233 5.62791 1.50818 7.1126 1.47597C8.59729 1.44375 10.0371 1.98596 11.1317 2.98951C12.2264 3.99306 12.8913 5.38046 12.9879 6.86236C13.0845 8.34426 12.6052 9.80623 11.6501 10.9434L14.3501 13.6434C14.3973 13.6899 14.4349 13.7453 14.4605 13.8065C14.4861 13.8677 14.4993 13.9333 14.4993 13.9996C14.4993 14.0659 14.4861 14.1316 14.4605 14.1927C14.4349 14.2539 14.3973 14.3093 14.3501 14.3559ZM7.2501 11.9996C8.18956 11.9996 9.10792 11.721 9.88906 11.1991C10.6702 10.6772 11.279 9.9353 11.6385 9.06736C11.998 8.19941 12.0921 7.24434 11.9088 6.32293C11.7255 5.40152 11.2732 4.55515 10.6089 3.89085C9.94455 3.22655 9.09819 2.77416 8.17678 2.59088C7.25537 2.4076 6.3003 2.50166 5.43235 2.86118C4.5644 3.2207 3.82255 3.82952 3.30062 4.61065C2.77868 5.39178 2.5001 6.31015 2.5001 7.24961C2.50175 8.50888 3.00273 9.7161 3.89317 10.6065C4.78361 11.497 5.99083 11.998 7.2501 11.9996Z" fill="#1C1C1C" fill-opacity="0.4"/>
</svg>
