<svg width="18" height="18" viewBox="0 0 18 18" fill="none" xmlns="http://www.w3.org/2000/svg">
<path d="M15.9 4.5V6.315C15.9 6.77905 15.7557 7.09948 15.5526 7.30261C15.3495 7.50573 15.029 7.65 14.565 7.65H12.6V3.0075C12.6 2.51109 13.0086 2.10139 13.5125 2.1C14.1687 2.1068 14.7672 2.37144 15.1968 2.80032C15.6319 3.2422 15.9 3.84273 15.9 4.5Z" stroke="#0E3281" stroke-width="1.2" stroke-miterlimit="10" stroke-linecap="round" stroke-linejoin="round"/>
<path d="M1.5 5.25V15.75C1.5 16.3725 2.20498 16.725 2.69998 16.35L3.9825 15.39C4.2825 15.165 4.7025 15.195 4.9725 15.465L6.21748 16.7175C6.50998 17.01 6.99002 17.01 7.28252 16.7175L8.54251 15.4575C8.80501 15.195 9.225 15.165 9.5175 15.39L10.8 16.35C11.295 16.7175 12 16.365 12 15.75V3C12 2.175 12.675 1.5 13.5 1.5H5.25H4.5C2.25 1.5 1.5 2.8425 1.5 4.5V5.25Z" fill="#0E3281"/>
<path d="M4.5 6.75H9" stroke="#F3F5F9" stroke-width="1.2" stroke-linecap="round" stroke-linejoin="round"/>
<path d="M5.0625 9.75H8.4375" stroke="#F3F5F9" stroke-width="1.2" stroke-linecap="round" stroke-linejoin="round"/>
</svg>
