<svg width="18" height="18" viewBox="0 0 18 18" fill="none" xmlns="http://www.w3.org/2000/svg">
<path d="M6.87041 8.1525C6.79541 8.145 6.70541 8.145 6.62291 8.1525C4.83791 8.0925 3.42041 6.63 3.42041 4.83C3.42041 2.9925 4.90541 1.5 6.75041 1.5C8.58791 1.5 10.0804 2.9925 10.0804 4.83C10.0729 6.63 8.65541 8.0925 6.87041 8.1525Z" fill="#0E3281"/>
<path d="M12.307 3C13.762 3 14.932 4.1775 14.932 5.625C14.932 6.97616 13.9098 8.08881 12.5995 8.23547C12.4702 8.24994 12.3388 8.23564 12.2095 8.25" fill="#0E3281"/>
<path d="M3.12053 10.92C1.30553 12.135 1.30553 14.115 3.12053 15.3225C5.18303 16.7025 8.56553 16.7025 10.628 15.3225C12.443 14.1075 12.443 12.1275 10.628 10.92C8.57303 9.5475 5.19053 9.5475 3.12053 10.92Z" fill="#0E3281"/>
<path d="M13.7549 15C14.2949 14.8875 14.8049 14.67 15.2249 14.3475C16.3949 13.47 16.3949 12.0225 15.2249 11.145C14.8124 10.83 14.3099 10.62 13.7774 10.5" fill="#0E3281"/>
</svg>
